<svg width="20" height="21" viewBox="0 0 20 21" fill="none" xmlns="http://www.w3.org/2000/svg">
  <path
    d="M10 0.5C7.93131 0.5 5.94735 1.29018 4.48457 2.6967C3.02178 4.10322 2.2 6.01088 2.2 8V12.4825L1.2809 13.3663C1.09915 13.5411 0.975379 13.7638 0.925242 14.0062C0.875104 14.2487 0.900848 14.4999 0.999219 14.7283C1.09759 14.9567 1.26417 15.1519 1.4779 15.2893C1.69164 15.4266 1.94292 15.4999 2.2 15.5H17.8C18.0571 15.4999 18.3084 15.4266 18.5221 15.2893C18.7358 15.1519 18.9024 14.9567 19.0008 14.7283C19.0992 14.4999 19.1249 14.2487 19.0748 14.0062C19.0246 13.7638 18.9009 13.5411 18.7191 13.3663L17.8 12.4825V8C17.8 6.01088 16.9782 4.10322 15.5154 2.6967C14.0527 1.29018 12.0687 0.5 10 0.5V0.5ZM10 20.5C8.96566 20.5 7.97368 20.1049 7.24228 19.4017C6.51089 18.6984 6.1 17.7446 6.1 16.75H13.9C13.9 17.7446 13.4891 18.6984 12.7577 19.4017C12.0263 20.1049 11.0343 20.5 10 20.5Z"
    fill="#B1B8C1" />
</svg>