<svg width="21" height="21" viewBox="0 0 21 21" fill="none" xmlns="http://www.w3.org/2000/svg">
  <path
    d="M8.54125 7.2725C8.735 7.14375 8.97375 7.0275 9.25 6.93875V9.06125C8.99966 8.98279 8.7612 8.8705 8.54125 8.7275C8.0875 8.425 8 8.1425 8 8C8 7.8575 8.0875 7.575 8.54125 7.2725ZM11.75 14.0613V11.9388C12.025 12.0275 12.265 12.1438 12.4588 12.2725C12.9138 12.5763 13 12.8575 13 13C13 13.1425 12.9125 13.425 12.4588 13.7275C12.2388 13.8705 12.0003 13.9828 11.75 14.0613Z"
    fill="#B1B8C1" />
  <path fill-rule="evenodd" clip-rule="evenodd"
    d="M10.5 20.5C13.1522 20.5 15.6957 19.4464 17.5711 17.5711C19.4464 15.6957 20.5 13.1522 20.5 10.5C20.5 7.84784 19.4464 5.3043 17.5711 3.42893C15.6957 1.55357 13.1522 0.5 10.5 0.5C7.84784 0.5 5.3043 1.55357 3.42893 3.42893C1.55357 5.3043 0.5 7.84784 0.5 10.5C0.5 13.1522 1.55357 15.6957 3.42893 17.5711C5.3043 19.4464 7.84784 20.5 10.5 20.5V20.5ZM11.75 4.25C11.75 3.91848 11.6183 3.60054 11.3839 3.36612C11.1495 3.1317 10.8315 3 10.5 3C10.1685 3 9.85054 3.1317 9.61612 3.36612C9.3817 3.60054 9.25 3.91848 9.25 4.25V4.365C8.50334 4.49792 7.79095 4.7793 7.155 5.1925C6.2525 5.7925 5.5 6.76125 5.5 8C5.5 9.2375 6.2525 10.2063 7.155 10.8075C7.755 11.2075 8.4725 11.4887 9.25 11.635V14.0612C8.76125 13.9025 8.4 13.665 8.19625 13.4313C8.0905 13.3015 7.95977 13.1943 7.81181 13.116C7.66384 13.0377 7.50166 12.99 7.33489 12.9755C7.16812 12.9611 7.00015 12.9804 6.84095 13.0321C6.68175 13.0838 6.53456 13.167 6.40811 13.2767C6.28167 13.3864 6.17855 13.5204 6.10486 13.6707C6.03118 13.821 5.98844 13.9846 5.97917 14.1517C5.9699 14.3188 5.9943 14.4861 6.05092 14.6437C6.10753 14.8012 6.19521 14.9457 6.30875 15.0687C7.01125 15.88 8.075 16.4137 9.25 16.635V16.75C9.25 17.0815 9.3817 17.3995 9.61612 17.6339C9.85054 17.8683 10.1685 18 10.5 18C10.8315 18 11.1495 17.8683 11.3839 17.6339C11.6183 17.3995 11.75 17.0815 11.75 16.75V16.635C12.4967 16.5021 13.2091 16.2207 13.845 15.8075C14.7475 15.2075 15.5 14.2387 15.5 13C15.5 11.7625 14.7475 10.7937 13.845 10.1925C13.2091 9.7793 12.4967 9.49792 11.75 9.365V6.93875C12.2388 7.0975 12.6 7.335 12.8038 7.56875C12.9105 7.69539 13.0413 7.79956 13.1887 7.8752C13.336 7.95084 13.4969 7.99645 13.662 8.00937C13.8271 8.02229 13.9932 8.00227 14.1505 7.95048C14.3078 7.89868 14.4532 7.81614 14.5784 7.70765C14.7035 7.59916 14.8059 7.46688 14.8794 7.3185C14.953 7.17012 14.9964 7.0086 15.007 6.84332C15.0176 6.67804 14.9953 6.5123 14.9413 6.35572C14.8873 6.19915 14.8027 6.05486 14.6925 5.93125C13.9888 5.12 12.9262 4.58625 11.75 4.365V4.25Z"
    fill="#B1B8C1" />
</svg>