<svg width="19" height="20" viewBox="0 0 19 20" fill="none" xmlns="http://www.w3.org/2000/svg">
  <path fill-rule="evenodd" clip-rule="evenodd"
    d="M0.75 2.2C0.75 1.85522 0.881696 1.52456 1.11612 1.28076C1.35054 1.03696 1.66848 0.9 2 0.9H5.75C6.08152 0.9 6.39946 1.03696 6.63388 1.28076C6.8683 1.52456 7 1.85522 7 2.2V6.1C7 6.44478 6.8683 6.77544 6.63388 7.01924C6.39946 7.26304 6.08152 7.4 5.75 7.4H2C1.66848 7.4 1.35054 7.26304 1.11612 7.01924C0.881696 6.77544 0.75 6.44478 0.75 6.1V2.2ZM3.25 4.8V3.5H4.5V4.8H3.25ZM0.75 13.9C0.75 13.5552 0.881696 13.2246 1.11612 12.9808C1.35054 12.737 1.66848 12.6 2 12.6H5.75C6.08152 12.6 6.39946 12.737 6.63388 12.9808C6.8683 13.2246 7 13.5552 7 13.9V17.8C7 18.1448 6.8683 18.4754 6.63388 18.7192C6.39946 18.963 6.08152 19.1 5.75 19.1H2C1.66848 19.1 1.35054 18.963 1.11612 18.7192C0.881696 18.4754 0.75 18.1448 0.75 17.8V13.9ZM3.25 16.5V15.2H4.5V16.5H3.25ZM13.25 0.9C12.9185 0.9 12.6005 1.03696 12.3661 1.28076C12.1317 1.52456 12 1.85522 12 2.2V6.1C12 6.44478 12.1317 6.77544 12.3661 7.01924C12.6005 7.26304 12.9185 7.4 13.25 7.4H17C17.3315 7.4 17.6495 7.26304 17.8839 7.01924C18.1183 6.77544 18.25 6.44478 18.25 6.1V2.2C18.25 1.85522 18.1183 1.52456 17.8839 1.28076C17.6495 1.03696 17.3315 0.9 17 0.9H13.25ZM14.5 3.5V4.8H15.75V3.5H14.5Z"
    fill="#B1B8C1" />
  <path
    d="M10.75 2.2C10.75 1.85522 10.6183 1.52456 10.3839 1.28076C10.1495 1.03696 9.83152 0.9 9.5 0.9C9.16848 0.9 8.85054 1.03696 8.61612 1.28076C8.3817 1.52456 8.25 1.85522 8.25 2.2V3.5C8.25 3.84478 8.3817 4.17544 8.61612 4.41924C8.85054 4.66304 9.16848 4.8 9.5 4.8C9.83152 4.8 10.1495 4.66304 10.3839 4.41924C10.6183 4.17544 10.75 3.84478 10.75 3.5V2.2ZM9.5 6.1C9.83152 6.1 10.1495 6.23696 10.3839 6.48076C10.6183 6.72456 10.75 7.05522 10.75 7.4V8.7H13.25C13.5815 8.7 13.8995 8.83696 14.1339 9.08076C14.3683 9.32456 14.5 9.65522 14.5 10C14.5 10.3448 14.3683 10.6754 14.1339 10.9192C13.8995 11.163 13.5815 11.3 13.25 11.3H9.5C9.16848 11.3 8.85054 11.163 8.61612 10.9192C8.3817 10.6754 8.25 10.3448 8.25 10V7.4C8.25 7.05522 8.3817 6.72456 8.61612 6.48076C8.85054 6.23696 9.16848 6.1 9.5 6.1V6.1ZM17 8.7C16.6685 8.7 16.3505 8.83696 16.1161 9.08076C15.8817 9.32456 15.75 9.65522 15.75 10C15.75 10.3448 15.8817 10.6754 16.1161 10.9192C16.3505 11.163 16.6685 11.3 17 11.3C17.3315 11.3 17.6495 11.163 17.8839 10.9192C18.1183 10.6754 18.25 10.3448 18.25 10C18.25 9.65522 18.1183 9.32456 17.8839 9.08076C17.6495 8.83696 17.3315 8.7 17 8.7ZM8.25 13.9C8.25 13.5552 8.3817 13.2246 8.61612 12.9808C8.85054 12.737 9.16848 12.6 9.5 12.6H10.75C11.0815 12.6 11.3995 12.737 11.6339 12.9808C11.8683 13.2246 12 13.5552 12 13.9C12 14.2448 11.8683 14.5754 11.6339 14.8192C11.3995 15.063 11.0815 15.2 10.75 15.2V17.8C10.75 18.1448 10.6183 18.4754 10.3839 18.7192C10.1495 18.963 9.83152 19.1 9.5 19.1C9.16848 19.1 8.85054 18.963 8.61612 18.7192C8.3817 18.4754 8.25 18.1448 8.25 17.8V13.9ZM5.75 11.3C6.08152 11.3 6.39946 11.163 6.63388 10.9192C6.8683 10.6754 7 10.3448 7 10C7 9.65522 6.8683 9.32456 6.63388 9.08076C6.39946 8.83696 6.08152 8.7 5.75 8.7H2C1.66848 8.7 1.35054 8.83696 1.11612 9.08076C0.881696 9.32456 0.75 9.65522 0.75 10C0.75 10.3448 0.881696 10.6754 1.11612 10.9192C1.35054 11.163 1.66848 11.3 2 11.3H5.75ZM18.25 13.9C18.25 14.2448 18.1183 14.5754 17.8839 14.8192C17.6495 15.063 17.3315 15.2 17 15.2H14.5C14.1685 15.2 13.8505 15.063 13.6161 14.8192C13.3817 14.5754 13.25 14.2448 13.25 13.9C13.25 13.5552 13.3817 13.2246 13.6161 12.9808C13.8505 12.737 14.1685 12.6 14.5 12.6H17C17.3315 12.6 17.6495 12.737 17.8839 12.9808C18.1183 13.2246 18.25 13.5552 18.25 13.9ZM17 19.1C17.3315 19.1 17.6495 18.963 17.8839 18.7192C18.1183 18.4754 18.25 18.1448 18.25 17.8C18.25 17.4552 18.1183 17.1246 17.8839 16.8808C17.6495 16.637 17.3315 16.5 17 16.5H13.25C12.9185 16.5 12.6005 16.637 12.3661 16.8808C12.1317 17.1246 12 17.4552 12 17.8C12 18.1448 12.1317 18.4754 12.3661 18.7192C12.6005 18.963 12.9185 19.1 13.25 19.1H17Z"
    fill="#B1B8C1" />
</svg>